HIERARCHY
ROOT Hips
{
  OFFSET 2.26061 22.2878 23.7974
  CHANNELS 6 Xposition Yposition Zposition Zrotation Xrotation Yrotation
  JOINT LeftUpLeg
  {
    OFFSET 8.64259 1.95398 -2.38835
    CHANNELS 3 Zrotation Xrotation Yrotation
    JOINT LeftLeg
    {
      OFFSET 43.7702 0 0
      CHANNELS 3 Zrotation Xrotation Yrotation
      JOINT LeftFoot
      {
        OFFSET 40.6238 0 0
        CHANNELS 3 Zrotation Xrotation Yrotation
        JOINT LeftToeBase
        {
          OFFSET 12.7242 0 0
          CHANNELS 3 Zrotation Xrotation Yrotation
          End Site
          {
            OFFSET 0 0 0
          }
        }
      }
    }
  }
  JOINT RightUpLeg
  {
    OFFSET -8.2249 1.95398 -2.59336
    CHANNELS 3 Zrotation Xrotation Yrotation
    JOINT RightLeg
    {
      OFFSET 43.5653 0 0
      CHANNELS 3 Zrotation Xrotation Yrotation
      JOINT RightFoot
      {
        OFFSET 40.6238 0 0
        CHANNELS 3 Zrotation Xrotation Yrotation
        JOINT RightToeBase
        {
          OFFSET 12.7242 0 0
          CHANNELS 3 Zrotation Xrotation Yrotation
          End Site
          {
            OFFSET 0 0 0
          }
        }
      }
    }
  }
  JOINT Spine
  {
    OFFSET 0.165834 0.87714 6.61349
    CHANNELS 3 Zrotation Xrotation Yrotation
    JOINT Spine1
    {
      OFFSET 7.38963 1.71661e-005 0
      CHANNELS 3 Zrotation Xrotation Yrotation
      JOINT Spine2
      {
        OFFSET 11.9445 1.14441e-005 0
        CHANNELS 3 Zrotation Xrotation Yrotation
        JOINT Spine3
        {
          OFFSET 14.7254 4.19617e-005 0
          CHANNELS 3 Zrotation Xrotation Yrotation
          JOINT Spine4
          {
            OFFSET 10.9679 0 0
            CHANNELS 3 Zrotation Xrotation Yrotation
            JOINT RightShoulder
            {
              OFFSET 2.46616 -1.6653 3.69651
              CHANNELS 3 Zrotation Xrotation Yrotation
              JOINT RightArm
              {
                OFFSET 13.0012 0 0
                CHANNELS 3 Zrotation Xrotation Yrotation
                JOINT RightForeArm
                {
                  OFFSET 28.7848 1.52588e-005 0
                  CHANNELS 3 Zrotation Xrotation Yrotation
                  JOINT RightHand
                  {
                    OFFSET 26.5688 1.52588e-005 0
                    CHANNELS 3 Zrotation Xrotation Yrotation
                    End Site
                    {
                      OFFSET 0 0 0
                    }
                  }
                }
              }
            }
            JOINT LeftShoulder
            {
              OFFSET 2.38034 -1.29275 -3.7523
              CHANNELS 3 Zrotation Xrotation Yrotation
              JOINT LeftArm
              {
                OFFSET 16.3182 6.10351e-005 0
                CHANNELS 3 Zrotation Xrotation Yrotation
                JOINT LeftForeArm
                {
                  OFFSET 27.0901 0 0
                  CHANNELS 3 Zrotation Xrotation Yrotation
                  JOINT LeftHand
                  {
                    OFFSET 24.5451 1.52588e-005 0
                    CHANNELS 3 Zrotation Xrotation Yrotation
                    End Site
                    {
                      OFFSET 0 0 0
                    }
                  }
                }
              }
            }
            JOINT Neck
            {
              OFFSET 5.0226 -0.0266342 0
              CHANNELS 3 Zrotation Xrotation Yrotation
              JOINT Head
              {
                OFFSET 6.69363 2.86102e-005 0
                CHANNELS 3 Zrotation Xrotation Yrotation
                End Site
                {
                  OFFSET 0 0 0
                }
              }
            }
          }
        }
      }
    }
  }
}
MOTION
Frames:	15
Frame Time:	0.0416667
29.1736 96.3858 -27.7112 96.7171 -38.2727 92.1856 -173.547 3.59439 84.305 -25.1144 14.5678 -1.78965 65.4334 5.3972 4.2479 34.5352 4.46863 3.41121 177.393 20.9266 89.4586 -47.492 1.03636 -3.73862 60.3345 -1.82955 -1.03785 37.0947 0.352651 -8.21662 -0.25415 6.89526 -89.8437 13.0839 -0.429218 0.365865 1.41298 -0.412725 0.384401 -21.1225 -0.519351 0.219952 -1.10985 -0.51934 0.219954 95.6189 -50.9997 -92.0364 9.85244 -23.1002 -15.2372 13.1252 -3.25669 -85.1067 -16.9563 -0.532673 -1.17654 -99.3673 -49.9036 64.8866 -5.4508 8.07287 -13.3356 -25.2531 -18.0031 -60.3364 -2.7799 -0.0741291 -13.0071 -13.6781 2.60781 2.6322 -14.9718 2.20963 4.65684 
36.5465 95.9487 -21.9181 93.3335 -33.7759 89.6702 -173.314 -0.601391 84.9208 -23.3005 16.6022 -1.48337 66.5578 5.97211 5.70414 38.4467 7.62757 1.08325 174.945 18.0356 89.403 -13.4456 -4.01866 -1.37671 61.5785 -2.36292 -1.40935 45.9164 -0.0265556 -10.3267 -0.49563 6.69204 -89.7831 13.4921 -0.878007 0.547332 1.82133 -0.853076 0.585436 -20.7159 -1.0019 0.258134 -0.703279 -1.00192 0.258126 96.4663 -50.9679 -90.7421 10.0197 -18.8759 -15.0421 17.1246 -1.46005 -83.3272 -12.8733 -0.156104 -2.95256 -99.6912 -49.3777 64.2246 -5.21567 9.48221 -15.5078 -22.0105 -14.1495 -64.1758 2.75054 -0.242206 -7.75914 -12.572 1.02958 0.534391 -14.5249 0.757919 3.06821 
44.0362 94.3494 -15.9073 92.4221 -29.5529 87.6151 -173.092 -5.68722 85.4671 -24.1142 19.8064 -0.934591 67.813 7.71082 5.5465 41.6894 10.4099 3.64386 174.341 21.1336 88.1458 -0.317565 1.22346 -1.07834 63.2473 -1.23958 -0.619685 54.2435 0.34875 -5.71919 -0.771164 6.64975 -89.5928 13.5808 -1.33214 0.989471 1.91018 -1.28729 1.04713 -20.6294 -1.56792 0.543311 -0.616711 -1.56791 0.543306 97.2812 -50.2996 -89.5568 9.67367 -15.6619 -16.7061 19.7657 -0.492313 -82.2232 -9.67831 -0.140626 -1.20778 -100.062 -49.0551 63.5635 -4.08022 10.0972 -18.6037 -19.3102 -11.5621 -67.4084 6.04997 -0.119788 -4.80016 -11.2978 -0.190097 -0.826151 -14.5493 -0.316819 1.48551 
52.0967 92.1897 -9.37776 93.5213 -28.451 87.9128 -172.96 -9.18169 87.3994 -31.6949 25.3738 0.908567 65.4066 5.80293 4.85282 48.9945 16.7731 5.28475 174.205 23.6718 89.2419 -8.71345 4.68214 0.076523 63.1725 -1.43143 -0.756336 48.5132 0.141075 -7.98489 -0.849608 6.75005 -89.5845 13.3817 -1.48476 1.01799 1.71117 -1.43853 1.08235 -20.8298 -1.72206 0.524608 -0.817136 -1.72207 0.524605 97.4623 -50.1909 -89.2868 8.56322 -14.2373 -18.418 21.7859 0.296671 -80.9598 -7.98386 -0.0325864 -1.15313 -100.452 -48.8836 62.9292 -5.2735 9.34896 -18.4042 -19.3394 -10.4375 -70.9678 9.18758 0.0808122 -2.65045 -11.1489 -0.59781 -1.11147 -14.3019 -0.622827 0.401499 
61.2536 90.9521 -2.61733 94.5096 -29.8296 92.5169 -172.293 -7.27826 93.409 -43.3757 27.1388 2.91728 47.4885 -7.55643 -7.97383 54.7155 22.3955 8.05039 176.455 28.0581 94.2305 -29.3899 1.71805 -0.340027 60.349 -0.739904 -0.344541 37.3965 0.349901 -5.64873 -0.773352 6.73119 -90.1691 13.4156 -1.616 -0.130868 1.74569 -1.62018 -0.0596045 -20.7969 -1.50193 -0.610605 -0.78427 -1.50192 -0.610598 97.1255 -50.1693 -89.8102 7.95007 -15.1862 -18.4317 22.0359 0.319416 -80.2986 -6.84294 0.00832549 -0.734989 -100.397 -50.7113 63.6946 -6.5974 9.40916 -15.7049 -17.9074 -9.55406 -73.0049 8.9797 0.335234 -0.0709703 -12.6555 -0.0981956 1.15535 -14.811 -0.0937997 -0.0662445 
68.7969 90.6987 3.77843 97.9112 -30.3972 95.3441 -175.06 1.1978 95.1002 -61.5227 24.8842 3.88065 33.6861 -14.6889 -13.3256 38.3994 8.16154 15.4818 176.633 24.7612 96.9662 -41.4746 1.71319 -0.616784 69.241 -3.35852 -1.75142 26.0178 0.11471 -2.85694 -0.66209 6.99455 -90.1836 12.8843 -1.40259 -0.198028 1.21415 -1.40995 -0.136097 -21.3261 -1.27823 -0.610476 -1.31349 -1.27823 -0.610478 96.3752 -50.6089 -90.9219 8.93079 -15.5872 -16.6093 21.7944 0.0523989 -80.2395 -7.04685 -0.0386834 0.159713 -100.411 -50.0497 63.4303 -7.76557 9.51609 -13.5778 -16.6663 -8.92377 -73.8573 9.63169 0.391695 0.214189 -13.8314 -0.182955 1.10122 -14.4305 -0.109579 -0.746611 
76.3844 92.8349 10.2207 98.7885 -32.0986 95.1471 -174.962 12.4027 93.6029 -67.9082 18.3019 2.57706 45.8076 -7.77735 -2.64303 40.0477 9.66102 12.9934 177.284 15.7258 97.4111 -38.8169 1.3878 -1.42085 74.0778 -5.22276 -2.54261 25.1656 -0.00790021 -1.78751 -0.358859 7.10771 -90.0206 12.6606 -0.722493 0.0439231 0.989817 -0.719854 0.0756703 -21.547 -0.702311 -0.175258 -1.53436 -0.702301 -0.175267 96.1186 -50.4095 -91.3402 10.3005 -15.6545 -14.971 21.7416 0.191616 -79.7293 -7.57689 -0.0200947 -1.14357 -100.707 -50.7502 63.2665 -6.92016 10.1878 -14.2532 -17.8033 -9.40671 -72.8494 10.8886 0.370251 -0.411664 -14.5922 -0.628495 0.777553 -13.8174 -0.542321 -0.980892 
83.856 94.9622 16.3918 97.538 -35.1366 92.6718 -173.412 19.4866 91.0007 -55.5 13.4339 0.685208 53.8273 -2.38996 -0.765621 41.7081 11.3355 13.5623 177.659 7.22372 96.2826 -32.4401 -0.83954 -2.9591 75.2712 -5.88001 -2.78741 27.4183 0.051952 -1.56583 -0.0254114 7.0232 -89.7162 12.8263 0.0853449 0.555645 1.15517 0.109714 0.551348 -21.3789 -0.0855964 0.555611 -1.36626 -0.0855881 0.555608 95.5934 -49.9672 -92.2073 12.6419 -14.3432 -13.0514 17.0329 -1.93161 -80.4199 -5.11008 0.0267469 -0.424026 -99.7625 -50.4956 64.5291 -7.45947 10.615 -13.4311 -18.1427 -9.3173 -73.4176 11.1552 0.283046 -1.21623 -15.1107 -0.346034 1.29207 -12.9374 -0.189201 -1.7622 
91.436 95.6828 22.0239 95.3145 -38.8831 90.7008 -173.252 20.3849 89.4747 -26.8379 8.97845 -0.63654 56.5547 -0.326199 -0.0282273 44.9577 15.0005 16.5432 176.68 0.405736 94.7109 -27.8414 -4.85332 -3.3498 75.5208 -6.1815 -2.89417 29.7059 0.179917 -2.4667 0.319595 6.9018 -89.6117 13.0676 0.821193 0.675713 1.39672 0.850106 0.638918 -21.1382 0.580125 0.89127 -1.12557 0.580146 0.891263 94.6595 -48.3628 -93.8936 14.056 -14.7621 -12.1457 17.7663 -1.1691 -81.9756 -6.90432 -0.0314494 -0.775412 -98.7624 -50.7609 66.0647 -7.29712 10.7441 -12.6873 -19.3521 -9.15675 -75.4787 11.0917 0.190031 -1.9873 -14.1275 0.00579944 3.77735 -12.3889 0.304642 -3.62685 
99.5181 95.0246 27.4448 92.6087 -42.942 89.9046 -174.329 22.4803 90.2322 -4.53778 6.63252 -0.123395 62.0167 1.65375 0.466716 46.1238 16.7457 19.4502 175.397 -4.88803 93.4225 -24.8051 -7.17312 -3.09585 75.8129 -6.78308 -3.1595 34.3363 0.300625 -1.4433 0.652242 6.76685 -89.7336 13.3388 1.42292 0.35323 1.66856 1.4371 0.290242 -20.8713 1.25099 0.764602 -0.858657 1.25096 0.764602 93.9664 -47.6746 -95.1003 13.0241 -15.5715 -12.8757 20.221 -0.476928 -82.0722 -4.42849 0.177323 -4.68079 -97.0622 -51.2214 68.672 -7.19963 10.7461 -12.4119 -20.2818 -8.93884 -77.4754 10.0223 -0.0639472 -4.12516 -12.2811 0.327597 5.50414 -11.9868 0.590591 -4.26071 
108.051 93.0327 33.2303 91.8465 -46.5763 89.8589 -173.475 25.0997 90.3408 -3.48011 2.96135 -1.2027 62.1223 1.84775 0.377675 47.514 18.2001 19.2451 175.731 -6.8097 92.1161 -32.9733 -11.4593 -5.71733 74.6089 -6.44846 -3.1061 43.0993 0.47615 -4.73907 1.04561 6.75806 -89.7011 13.3585 2.21916 0.318877 1.68946 2.23106 0.220842 -20.8588 2.02067 0.971338 -0.846185 2.0207 0.971344 93.1695 -47.2706 -96.4391 13.6065 -15.0947 -12.3126 22.0725 0.343764 -81.7262 -3.81416 0.223487 -7.34483 -96.1191 -51.3552 70.0773 -5.536 11.7849 -14.0437 -21.8438 -9.43142 -77.816 8.23151 -0.23926 -5.948 -12.1007 0.153439 5.58001 -10.8463 0.45297 -5.76171 
117.534 91.6464 39.8254 92.3028 -43.5802 88.4357 -174.384 27.3148 86.7944 -17.4128 7.44572 -1.73123 54.4081 -2.28063 -3.98007 40.9738 10.4044 10.5597 174.055 -1.94911 91.4412 -47.7014 -12.6256 -5.5728 55.8098 0.311336 0.936174 51.7295 1.2875 2.46678 0.698534 6.71913 -89.3762 13.426 1.68755 1.03113 1.75566 1.7313 0.955841 -20.7806 1.29969 1.4906 -0.767958 1.29967 1.49059 92.8398 -49.8874 -96.4825 13.5153 -14.9664 -9.46866 22.2846 0.575409 -81.3244 -3.29028 0.22801 -8.54557 -95.8411 -51.9496 70.6564 -5.34553 12.7644 -13.6487 -19.7614 -8.97328 -78.201 7.43264 -0.290832 -6.65985 -13.4824 -0.301897 3.57362 -11.0864 0.103752 -6.49741 
126.278 91.5152 45.9318 93.0103 -41.0732 87.2748 -175.063 28.9199 82.8983 -33.7222 12.735 -1.08125 58.777 0.106005 2.16842 33.7366 3.87724 1.00897 175.614 8.53538 85.0575 -67.6393 -6.11504 -4.16738 36.8344 4.89533 5.03344 35.3499 0.68403 -4.92977 0.300605 6.75378 -89.131 13.3569 1.01665 1.61355 1.68546 1.08668 1.56725 -20.8428 0.48481 1.84443 -0.830148 0.484801 1.84443 92.762 -52.0062 -96.2202 14.5524 -14.5207 -7.13221 19.8816 -0.359475 -81.4792 -5.43489 0.231858 -8.16365 -97.4957 -52.2258 68.3702 -6.37706 12.3663 -10.5831 -18.3478 -8.58776 -78.5827 6.99112 -0.267853 -6.53054 -14.5538 -0.478902 2.0173 -11.2411 -0.0456914 -6.54678 
133.661 94.02 51.6106 96.4452 -45.2009 90.6773 -172.887 18.645 84.9702 -31.7551 13.2329 -2.29185 62.2856 2.93388 5.28046 33.4278 3.67794 -0.460806 179.576 19.0863 88.7456 -72.7751 -0.818267 -4.54429 47.0447 1.14238 1.16804 35.5929 0.373083 -6.78918 0.418661 7.09993 -89.2754 12.6657 1.17756 1.30954 0.994693 1.23406 1.25643 -21.5371 0.729619 1.60284 -1.52449 0.729602 1.60284 93.2859 -53.5772 -95.177 13.8631 -15.9512 -8.77544 20.0495 -0.550542 -80.1727 -6.32649 0.229167 -7.70228 -97.6456 -51.8765 68.0429 -8.74855 11.0627 -7.9206 -18.3092 -8.64571 -78.0832 8.12141 -0.28116 -6.44532 -14.9855 0.183604 0.941003 -11.9048 0.511647 -4.52705 
141.121 96.5161 57.0459 97.3818 -43.1302 92.2703 -173.938 8.97761 85.3976 -26.0035 13.259 -0.994446 61.9535 2.53622 3.77412 36.4421 6.0241 0.0514286 177.07 23.4299 90.2179 -57.7435 2.61257 -2.93984 60.0858 -2.09395 -1.24775 37.1626 0.360301 -6.34073 0.0548486 7.21274 -89.538 12.4466 0.328882 0.886777 0.77545 0.367545 0.871448 -21.7575 0.0471552 0.944624 -1.7448 0.0471592 0.944614 94.4142 -53.5348 -93.5122 13.8133 -16.6102 -7.48373 18.9604 -0.979865 -79.2856 -4.13833 0.207359 -7.97511 -99.6663 -51.5206 65.0331 -11.9251 8.82826 -3.48346 -16.6953 -8.25881 -77.7557 6.68251 -0.306583 -7.08783 -16.5536 0.120629 0.854502 -11.6401 0.379807 -3.50441 
